<?xml version="1.0" encoding="UTF-8" standalone="no"?>
<svg
   xmlns:dc="http://purl.org/dc/elements/1.1/"
   xmlns:cc="http://creativecommons.org/ns#"
   xmlns:rdf="http://www.w3.org/1999/02/22-rdf-syntax-ns#"
   xmlns:svg="http://www.w3.org/2000/svg"
   xmlns="http://www.w3.org/2000/svg"
   xmlns:xlink="http://www.w3.org/1999/xlink"
   xmlns:sodipodi="http://sodipodi.sourceforge.net/DTD/sodipodi-0.dtd"
   xmlns:inkscape="http://www.inkscape.org/namespaces/inkscape"
   inkscape:version="1.0 (4035a4fb49, 2020-05-01)"
   sodipodi:docname="folder-unlocked.svg"
   width="32"
   version="1.1"
   height="32"
   viewBox="0 0 32 32"
   id="svg2">
  <sodipodi:namedview
     inkscape:document-rotation="0"
     inkscape:current-layer="svg2"
     inkscape:window-maximized="1"
     inkscape:window-y="0"
     inkscape:window-x="0"
     inkscape:cy="14.258899"
     inkscape:cx="-63.08298"
     inkscape:zoom="5.2149125"
     showgrid="false"
     id="namedview18"
     inkscape:window-height="1015"
     inkscape:window-width="1920"
     inkscape:pageshadow="2"
     inkscape:pageopacity="0"
     guidetolerance="10"
     gridtolerance="10"
     objecttolerance="10"
     borderopacity="1"
     bordercolor="#666666"
     pagecolor="#ffffff" />
  <defs
     id="defs5455">
    <linearGradient
       id="linearGradient835"
       inkscape:collect="always">
      <stop
         id="stop831"
         offset="0"
         style="stop-color:#00bcd4;stop-opacity:1" />
      <stop
         id="stop833"
         offset="1"
         style="stop-color:#0055d4;stop-opacity:1" />
    </linearGradient>
    <linearGradient
       id="linearGradient832"
       inkscape:collect="always">
      <stop
         id="stop828"
         offset="0"
         style="stop-color:#00bcd4;stop-opacity:1" />
      <stop
         id="stop830"
         offset="1"
         style="stop-color:#0055d4;stop-opacity:1" />
    </linearGradient>
    <linearGradient
       id="linearGradient4172-5">
      <stop
         style="stop-color:#3daee9"
         id="stop4174-6" />
      <stop
         offset="1"
         style="stop-color:#6cc1ef"
         id="stop4176-6" />
    </linearGradient>
    <linearGradient
       gradientTransform="translate(322.77144,515.798)"
       id="linearGradient4342"
       xlink:href="#linearGradient4172-5"
       y1="29"
       y2="8"
       gradientUnits="userSpaceOnUse"
       x2="0" />
    <linearGradient
       gradientTransform="translate(0,17)"
       gradientUnits="userSpaceOnUse"
       y2="505.798"
       x2="414.57144"
       y1="505.798"
       x1="386.57144"
       id="linearGradient834"
       xlink:href="#linearGradient832"
       inkscape:collect="always" />
    <linearGradient
       gradientUnits="userSpaceOnUse"
       y2="543.79797"
       x2="415.57144"
       y1="531.51489"
       x1="401.50647"
       id="linearGradient837"
       xlink:href="#linearGradient835"
       inkscape:collect="always" />
  </defs>
  <metadata
     id="metadata5458">
    <rdf:RDF>
      <cc:Work
         rdf:about="">
        <dc:format>image/svg+xml</dc:format>
        <dc:type
           rdf:resource="http://purl.org/dc/dcmitype/StillImage" />
        <dc:title />
      </cc:Work>
    </rdf:RDF>
  </metadata>
  <g
     id="layer1"
     transform="matrix(1 0 0 1 -384.57143 -515.798)">
    <g
       id="layer1-1"
       transform="matrix(1 0 0 1 -0.000006 0)">
      <path
         inkscape:connector-curvature="0"
         style="fill:url(#linearGradient834);fill-opacity:1;fill-rule:evenodd"
         id="path4308"
         d="m 386.57144,518.798 v 7 1 h 28 v -6 h -14.00001 l -2,-2 z" />
      <path
         style="fill-opacity:0.235294;fill-rule:evenodd"
         id="path4306"
         d="m 397.57143,523.798 -1.99999,1 -9,0 0,1 6.99999,0 3,0 z" />
      <path
         inkscape:connector-curvature="0"
         style="fill:url(#linearGradient837);fill-opacity:1"
         id="rect4294"
         d="m 397.57143,523.798 -2,2 h -9 -1 v 19 h 11 1 18 v -21 z" />
      <path
         style="fill:#ffffff;fill-opacity:0.235294;fill-rule:evenodd"
         id="path4304"
         d="m 397.57143,523.798 -2,2 -10,0 0,1 11,0 z" />
      <path
         style="fill:#ffffff;fill-opacity:0.235294;fill-rule:evenodd"
         id="path4310"
         d="m 398.57143,518.798 1,3 15.00001,0 0,-1 -14.00001,0 z" />
      <rect
         width="30"
         x="385.57144"
         y="543.79797"
         height="1"
         style="fill-opacity:0.235294"
         id="rect4292" />
    </g>
    <path
       inkscape:connector-curvature="0"
       style="fill:#0f0d1c;fill-opacity:1"
       d="m 400.43583,529.06918 c -1.662,0 -3,1.338 -3,3 h 1 c 0,-1.108 0.892,-2 2,-2 1.108,0 2,0.892 2,2 v 2 h -4 -1 -1 v 5 h 8 v -5 h -1 v -2 c 0,-1.662 -1.33799,-3 -3,-3 z m -3,6 h 1 4 1 v 3 h -6 z"
       id="rect4184" />
  </g>
</svg>
