<?xml version="1.0" encoding="UTF-8" standalone="no"?>
<svg
   xmlns:dc="http://purl.org/dc/elements/1.1/"
   xmlns:cc="http://creativecommons.org/ns#"
   xmlns:rdf="http://www.w3.org/1999/02/22-rdf-syntax-ns#"
   xmlns:svg="http://www.w3.org/2000/svg"
   xmlns="http://www.w3.org/2000/svg"
   xmlns:xlink="http://www.w3.org/1999/xlink"
   xmlns:sodipodi="http://sodipodi.sourceforge.net/DTD/sodipodi-0.dtd"
   xmlns:inkscape="http://www.inkscape.org/namespaces/inkscape"
   inkscape:version="1.0 (4035a4fb49, 2020-05-01)"
   sodipodi:docname="folder-games.svg"
   id="svg25"
   version="1.1"
   width="32"
   height="32">
  <metadata
     id="metadata31">
    <rdf:RDF>
      <cc:Work
         rdf:about="">
        <dc:format>image/svg+xml</dc:format>
        <dc:type
           rdf:resource="http://purl.org/dc/dcmitype/StillImage" />
      </cc:Work>
    </rdf:RDF>
  </metadata>
  <defs
     id="defs29">
    <linearGradient
       id="linearGradient831"
       inkscape:collect="always">
      <stop
         id="stop827"
         offset="0"
         style="stop-color:#0055d4;stop-opacity:1" />
      <stop
         id="stop829"
         offset="1"
         style="stop-color:#00bcd4;stop-opacity:1" />
    </linearGradient>
    <linearGradient
       id="linearGradient842"
       inkscape:collect="always">
      <stop
         id="stop838"
         offset="0"
         style="stop-color:#00bcd4;stop-opacity:1" />
      <stop
         id="stop840"
         offset="1"
         style="stop-color:#0055d4;stop-opacity:1" />
    </linearGradient>
    <linearGradient
       gradientTransform="translate(0,21)"
       gradientUnits="userSpaceOnUse"
       y2="-14"
       x2="30"
       y1="-14"
       x1="2"
       id="linearGradient844"
       xlink:href="#linearGradient842"
       inkscape:collect="always" />
    <linearGradient
       gradientUnits="userSpaceOnUse"
       y2="18.5"
       x2="31"
       y1="40.856869"
       x1="25.458714"
       id="linearGradient833"
       xlink:href="#linearGradient831"
       inkscape:collect="always" />
  </defs>
  <sodipodi:namedview
     inkscape:document-rotation="0"
     inkscape:current-layer="svg25"
     inkscape:window-maximized="1"
     inkscape:window-y="0"
     inkscape:window-x="0"
     inkscape:cy="2.5205078"
     inkscape:cx="-76.119603"
     inkscape:zoom="5.2149125"
     showgrid="false"
     id="namedview27"
     inkscape:window-height="1015"
     inkscape:window-width="1920"
     inkscape:pageshadow="2"
     inkscape:pageopacity="0"
     guidetolerance="10"
     gridtolerance="10"
     objecttolerance="10"
     borderopacity="1"
     bordercolor="#666666"
     pagecolor="#ffffff" />
  <linearGradient
     gradientTransform="translate(-48.3)"
     y2="8"
     y1="29"
     x2="0"
     gradientUnits="userSpaceOnUse"
     id="a">
    <stop
       id="stop2"
       stop-color="#3daee9"
       offset="0" />
    <stop
       id="stop4"
       stop-color="#6cc1ef"
       offset="1" />
  </linearGradient>
  <path
     style="fill:url(#linearGradient844);fill-opacity:1;fill-rule:evenodd"
     inkscape:connector-curvature="0"
     id="path7"
     d="m 2,3 v 8 H 30 V 5 H 16 L 14,3 Z" />
  <path
     id="path9"
     fill-rule="evenodd"
     fill-opacity=".235"
     d="m13 8-2 1h-9v1h10z" />
  <path
     inkscape:connector-curvature="0"
     style="fill:url(#linearGradient833);fill-opacity:1"
     id="path11"
     d="m 13,8 -2,2 H 1 V 29 H 31 V 8 Z" />
  <g
     id="g17"
     fill-opacity=".235">
    <path
       id="path13"
       fill-rule="evenodd"
       fill="#fff"
       d="m13 8-2 2h-10v1h11zm1-5 1 3h15v-1h-14z" />
    <path
       id="path15"
       d="m1 28h30v1h-30z" />
  </g>
  <g
     style="fill:#005278;fill-opacity:1"
     transform="translate(-0.40677969,-0.67796649)"
     id="g23">
    <path
       style="fill:#3e3575;fill-opacity:1"
       inkscape:connector-curvature="0"
       id="path19"
       d="m 13,17 v 1 h -1 v 1 h 1 v 1 h 1 v -1 h 1 v -1 h -1 v -1 z m 5.5,-0.1 a 0.6,0.6 0 0 0 -0.6,0.6 0.6,0.6 0 0 0 0.6,0.6 0.6,0.6 0 0 0 0.6,-0.6 0.6,0.6 0 0 0 -0.6,-0.6 z m -1,1 a 0.6,0.6 0 0 0 -0.6,0.6 0.6,0.6 0 0 0 0.6,0.6 0.6,0.6 0 0 0 0.6,-0.6 0.6,0.6 0 0 0 -0.6,-0.6 z m 2,0 a 0.6,0.6 0 0 0 -0.6,0.6 0.6,0.6 0 0 0 0.6,0.6 0.6,0.6 0 0 0 0.6,-0.6 0.6,0.6 0 0 0 -0.6,-0.6 z m -1,1 a 0.6,0.6 0 0 0 -0.6,0.6 0.6,0.6 0 0 0 0.6,0.6 0.6,0.6 0 0 0 0.6,-0.6 0.6,0.6 0 0 0 -0.6,-0.6 z" />
    <path
       style="fill:#16132a;fill-opacity:1"
       inkscape:connector-curvature="0"
       id="path21"
       d="m 12,15 a 2,4 0 0 0 -2,4 v 2.5 a 1.5,1.5 0 0 0 2.56,1.06 l 0.944,-0.943 A 1.5,1.5 0 0 0 14.5,22 1.5,1.5 0 0 0 16,20.5 a 1.5,1.5 0 0 0 2.498,1.12 l 0.941,0.94 A 1.5,1.5 0 0 0 22,21.5 V 19 a 2,4 0 0 0 -2,-4 z m 0,1 h 8 a 1,3 0 0 1 1,3 v 2.5 a 0.5,0.5 0 0 1 -0.854,0.354 L 18.293,20 H 18 v 0.5 a 0.5,0.5 0 0 1 -1,0 V 20 h -2 v 0.5 a 0.5,0.5 0 0 1 -1,0 V 20 h -0.293 l -1.853,1.854 A 0.5,0.5 0 0 1 11,21.5 V 19 a 1,3 0 0 1 1,-3 z" />
  </g>
</svg>
