<?xml version="1.0" encoding="UTF-8" standalone="no"?>
<svg
   xmlns:dc="http://purl.org/dc/elements/1.1/"
   xmlns:cc="http://creativecommons.org/ns#"
   xmlns:rdf="http://www.w3.org/1999/02/22-rdf-syntax-ns#"
   xmlns:svg="http://www.w3.org/2000/svg"
   xmlns="http://www.w3.org/2000/svg"
   xmlns:xlink="http://www.w3.org/1999/xlink"
   xmlns:sodipodi="http://sodipodi.sourceforge.net/DTD/sodipodi-0.dtd"
   xmlns:inkscape="http://www.inkscape.org/namespaces/inkscape"
   version="1.1"
   id="Capa_1"
   x="0px"
   y="0px"
   width="21.006px"
   height="21.007px"
   viewBox="0 0 21.006 21.007"
   style="enable-background:new 0 0 21.006 21.007;"
   xml:space="preserve"
   sodipodi:docname="busywidget.svg"
   inkscape:version="1.0 (4035a4fb49, 2020-05-01)"><metadata
   id="metadata67"><rdf:RDF><cc:Work
       rdf:about=""><dc:format>image/svg+xml</dc:format><dc:type
         rdf:resource="http://purl.org/dc/dcmitype/StillImage" /><dc:title /></cc:Work></rdf:RDF></metadata><defs
   id="busywidget"><linearGradient
     id="linearGradient1027"
     inkscape:collect="always"><stop
       id="stop1023"
       offset="0"
       style="stop-color:#005be0;stop-opacity:1" /><stop
       id="stop1025"
       offset="1"
       style="stop-color:#00bcd4;stop-opacity:1" /></linearGradient><linearGradient
     inkscape:collect="always"
     id="linearGradient904"><stop
       style="stop-color:#0055d4;stop-opacity:1"
       offset="0"
       id="stop900" /><stop
       style="stop-color:#00bcd4;stop-opacity:1"
       offset="1"
       id="stop902" /></linearGradient><linearGradient
     inkscape:collect="always"
     xlink:href="#linearGradient904"
     id="linearGradient906"
     x1="0.17148258"
     y1="0.17292264"
     x2="21.175873"
     y2="20.94422"
     gradientUnits="userSpaceOnUse" /><linearGradient
     y2="11.444"
     x2="11.994"
     y1="9.3110695"
     x1="9.3774319"
     gradientUnits="userSpaceOnUse"
     id="linearGradient1021"
     xlink:href="#linearGradient1027"
     inkscape:collect="always" /></defs><sodipodi:namedview
   inkscape:lockguides="false"
   inkscape:document-rotation="0"
   pagecolor="#ffffff"
   bordercolor="#666666"
   borderopacity="1"
   objecttolerance="10"
   gridtolerance="10"
   guidetolerance="10"
   inkscape:pageopacity="0"
   inkscape:pageshadow="2"
   inkscape:window-width="1920"
   inkscape:window-height="1015"
   id="namedview8"
   showgrid="false"
   inkscape:zoom="10.646082"
   inkscape:cx="26.524481"
   inkscape:cy="7.1514466"
   inkscape:window-x="0"
   inkscape:window-y="0"
   inkscape:window-maximized="1"
   inkscape:current-layer="Capa_1" />
<g
   id="busywidget"
   style="fill-opacity:1;fill:url(#linearGradient906)">
<g
   id="g28"
   style="fill-opacity:1;fill:url(#linearGradient906)">
   <path
   d="M11.438,9.01l6.169,1.733l0.325-1.011l-7.366-0.989l6.207-1.583l-0.222-1.04L9.675,8.949l4.587-4.478l-0.714-0.789    l-4.543,5.89l1.734-6.175L9.729,3.072l-0.99,7.368l-1.583-6.21L6.118,4.453l2.827,6.879L4.467,6.743L3.68,7.457L9.566,12    l-6.172-1.736l-0.325,1.012l7.371,0.991l-6.213,1.584l0.224,1.038l6.878-2.827L6.74,16.539l0.715,0.787l4.539-5.882l-1.732,6.167    l1.01,0.324l0.99-7.371l1.585,6.212l1.037-0.222l-2.826-6.877l4.476,4.585l0.788-0.713L11.438,9.01z M12.254,10.523l-0.247,0.878    l-0.646,0.631l-0.878,0.224l-0.874-0.245l-0.632-0.647l-0.225-0.882l0.244-0.87l0.65-0.633l0.88-0.225l0.872,0.245l0.632,0.648    L12.254,10.523z"
   id="path14"
   style="fill-opacity:1;fill:url(#linearGradient1021)" />
</g>
<g
   id="g32">
</g>
<g
   id="g34">
</g>
<g
   id="g36">
</g>
<g
   id="g38">
</g>
<g
   id="g40">
</g>
<g
   id="g42">
</g>
<g
   id="g44">
</g>
<g
   id="g46">
</g>
<g
   id="g48">
</g>
<g
   id="g50">
</g>
<g
   id="g52">
</g>
<g
   id="g54">
</g>
<g
   id="g56">
</g>
<g
   id="g58">
</g>
<g
   id="g60">
</g>
</g>
</svg>
