<?xml version="1.0" encoding="UTF-8" standalone="no"?>
<svg
   xmlns:dc="http://purl.org/dc/elements/1.1/"
   xmlns:cc="http://creativecommons.org/ns#"
   xmlns:rdf="http://www.w3.org/1999/02/22-rdf-syntax-ns#"
   xmlns:svg="http://www.w3.org/2000/svg"
   xmlns="http://www.w3.org/2000/svg"
   xmlns:xlink="http://www.w3.org/1999/xlink"
   xmlns:sodipodi="http://sodipodi.sourceforge.net/DTD/sodipodi-0.dtd"
   xmlns:inkscape="http://www.inkscape.org/namespaces/inkscape"
   inkscape:version="1.0 (4035a4fb49, 2020-05-01)"
   sodipodi:docname="folder-open.svg"
   id="svg12"
   version="1.1"
   viewBox="0 0 32 32">
  <metadata
     id="metadata16">
    <rdf:RDF>
      <cc:Work
         rdf:about="">
        <dc:format>image/svg+xml</dc:format>
        <dc:type
           rdf:resource="http://purl.org/dc/dcmitype/StillImage" />
      </cc:Work>
    </rdf:RDF>
  </metadata>
  <sodipodi:namedview
     inkscape:document-rotation="0"
     inkscape:current-layer="svg12"
     inkscape:window-maximized="1"
     inkscape:window-y="0"
     inkscape:window-x="0"
     inkscape:cy="16"
     inkscape:cx="-52.40678"
     inkscape:zoom="7.375"
     showgrid="false"
     id="namedview14"
     inkscape:window-height="1015"
     inkscape:window-width="1920"
     inkscape:pageshadow="2"
     inkscape:pageopacity="0"
     guidetolerance="10"
     gridtolerance="10"
     objecttolerance="10"
     borderopacity="1"
     bordercolor="#666666"
     pagecolor="#ffffff" />
  <defs
     id="defs3051">
    <linearGradient
       id="linearGradient824"
       inkscape:collect="always">
      <stop
         id="stop820"
         offset="0"
         style="stop-color:#00bcd4;stop-opacity:1" />
      <stop
         id="stop822"
         offset="1"
         style="stop-color:#0055d4;stop-opacity:1" />
    </linearGradient>
    <linearGradient
       id="linearGradient827"
       inkscape:collect="always">
      <stop
         id="stop823"
         offset="0"
         style="stop-color:#0055d4;stop-opacity:1" />
      <stop
         id="stop825"
         offset="1"
         style="stop-color:#00bcd4;stop-opacity:1" />
    </linearGradient>
    <style
       id="current-color-scheme"
       type="text/css">
      .ColorScheme-Text {
        color:#4d4d4d;
      }
      .ColorScheme-Highlight {
        color:#3daee9;
      }
      </style>
    <linearGradient
       gradientUnits="userSpaceOnUse"
       y2="8.5"
       x2="30"
       y1="-1.0379825"
       x1="-3.8995464"
       id="linearGradient829"
       xlink:href="#linearGradient827"
       inkscape:collect="always" />
    <linearGradient
       gradientUnits="userSpaceOnUse"
       y2="13.521277"
       x2="26.27112"
       y1="28.971067"
       x1="15.979774"
       id="linearGradient826"
       xlink:href="#linearGradient824"
       inkscape:collect="always" />
  </defs>
  <path
     id="path4"
     class="ColorScheme-Highlight"
     d="M 2 3 L 2 14 L 1 14 L 1 29 L 12 29 L 13 29 L 31 29 L 31 12 L 30 12 L 30 5 L 16 5 L 14 3 L 2 3 z "
     style="fill:url(#linearGradient826);fill-opacity:1;stroke:none" />
  <path
     id="path6"
     d="M 2 3 L 2 14 L 11 14 L 13 12 L 30 12 L 30 5 L 16 5 L 14 3 L 2 3 z "
     style="fill-opacity:1;fill-rule:evenodd;fill:url(#linearGradient829)" />
  <path
     id="path8"
     d="M 14 3 L 15 6 L 30 6 L 30 5 L 16 5 L 14 3 z M 13 12 L 11 14 L 1 14 L 1 15 L 12 15 L 13 12 z "
     style="fill:#ffffff;fill-opacity:0.2;fill-rule:evenodd" />
  <path
     id="path10"
     class="ColorScheme-Text"
     d="M 13 12 L 11 13 L 2 13 L 2 14 L 11 14 L 13 12 z M 1 28 L 1 29 L 31 29 L 31 28 L 1 28 z "
     style="fill-opacity:0.2;fill-rule:evenodd" />
</svg>
