<?xml version="1.0" encoding="UTF-8" standalone="no"?>
<svg
   xmlns:dc="http://purl.org/dc/elements/1.1/"
   xmlns:cc="http://creativecommons.org/ns#"
   xmlns:rdf="http://www.w3.org/1999/02/22-rdf-syntax-ns#"
   xmlns:svg="http://www.w3.org/2000/svg"
   xmlns="http://www.w3.org/2000/svg"
   xmlns:sodipodi="http://sodipodi.sourceforge.net/DTD/sodipodi-0.dtd"
   xmlns:inkscape="http://www.inkscape.org/namespaces/inkscape"
   inkscape:version="1.0 (4035a4fb49, 2020-05-01)"
   height="21.505348"
   width="27.685041"
   sodipodi:docname="akonadi.svg"
   id="svg14"
   xml:space="preserve"
   enable-background="new 0 0 1000 1000"
   viewBox="0 0 27.685041 21.505348"
   y="0px"
   x="0px"
   version="1.1"><metadata
   id="metadata10"><rdf:RDF><cc:Work
       rdf:about=""><dc:format>image/svg+xml</dc:format><dc:type
         rdf:resource="http://purl.org/dc/dcmitype/StillImage" /></cc:Work></rdf:RDF></metadata><defs
   id="defs18" /><sodipodi:namedview
   inkscape:lockguides="false"
   inkscape:document-rotation="0"
   inkscape:current-layer="svg14"
   inkscape:window-maximized="1"
   inkscape:window-y="0"
   inkscape:window-x="0"
   inkscape:cy="5.0336381"
   inkscape:cx="18.301969"
   inkscape:zoom="12.803024"
   showgrid="false"
   id="namedview16"
   inkscape:window-height="1017"
   inkscape:window-width="1920"
   inkscape:pageshadow="2"
   inkscape:pageopacity="0"
   guidetolerance="10"
   gridtolerance="10"
   objecttolerance="10"
   borderopacity="1"
   bordercolor="#666666"
   pagecolor="#ffffff" />
<g
   transform="matrix(0.0220691,0,0,0.0220691,2.739309,-0.15278374)"
   id="akonadi"><g
     id="g10"
     transform="matrix(0.1,0,0,-0.1,0,511)"><path
       style="fill:#00bcd4;fill-opacity:1"
       inkscape:connector-curvature="0"
       id="path4"
       d="M 2532,2970.9 100,1751.3 2551.2,526.9 5000,-697.5 7448.8,526.9 9900,1751.3 7468,2970.9 c -1337,668.5 -2448.8,1217.2 -2468,1217.2 -19.2,0 -1131,-548.7 -2468,-1217.2 z" /><path
       style="fill:#d3dae3;fill-opacity:1"
       inkscape:connector-curvature="0"
       id="path6"
       d="M 694.2,421.5 C 373.1,261 112,124.4 112,117.2 c 0,-7.2 1099.8,-563.1 2444,-1234 l 2444,-1222 2444,1222 c 1344.2,670.9 2444,1226.8 2444,1234 0,19.2 -1171.7,599 -1210,599 -19.2,0 -855.4,-409.7 -1857,-910.5 L 5000,-1104.8 3179,-194.3 C 2177.4,306.5 1338.8,716.2 1317.2,713.8 c -24,0 -304.3,-131.8 -623,-292.3 z" /><path
       style="fill:#d3dae3;fill-opacity:1"
       inkscape:connector-curvature="0"
       id="path8"
       d="M 699,-1217.4 100,-1519.3 2551.2,-2743.7 5000,-3968.1 7448.8,-2743.7 9900,-1519.3 9289,-1212.6 8678,-908.3 6840.2,-1826 5000,-2746.1 3167,-1828.4 c -1008.8,503.2 -1840.2,915.3 -1852.2,912.9 -9.6,0 -285.1,-136.6 -615.8,-301.9 z" /></g></g>
</svg>
