<?xml version="1.0" encoding="UTF-8" standalone="no"?>
<svg
   xmlns:dc="http://purl.org/dc/elements/1.1/"
   xmlns:cc="http://creativecommons.org/ns#"
   xmlns:rdf="http://www.w3.org/1999/02/22-rdf-syntax-ns#"
   xmlns:svg="http://www.w3.org/2000/svg"
   xmlns="http://www.w3.org/2000/svg"
   xmlns:sodipodi="http://sodipodi.sourceforge.net/DTD/sodipodi-0.dtd"
   xmlns:inkscape="http://www.inkscape.org/namespaces/inkscape"
   width="22"
   height="22"
   id="svg3869"
   version="1.1"
   inkscape:version="1.0 (4035a4fb49, 2020-05-01)"
   sodipodi:docname="akregator.svg"
   viewBox="0 0 22 22">
  <defs
     id="defs3871">
    <style
       type="text/css"
       id="current-color-scheme">
      </style>
  </defs>
  <sodipodi:namedview
     id="base"
     pagecolor="#ffffff"
     bordercolor="#666666"
     borderopacity="1.0"
     inkscape:pageopacity="0.0"
     inkscape:pageshadow="2"
     inkscape:zoom="23.799909"
     inkscape:cx="11"
     inkscape:cy="11"
     inkscape:document-units="px"
     inkscape:current-layer="layer1"
     showgrid="false"
     fit-margin-top="0"
     fit-margin-left="0"
     fit-margin-right="0"
     fit-margin-bottom="0"
     inkscape:window-width="1920"
     inkscape:window-height="1017"
     inkscape:window-x="0"
     inkscape:window-y="0"
     inkscape:window-maximized="1"
     inkscape:showpageshadow="false"
     showguides="false"
     inkscape:document-rotation="0">
    <inkscape:grid
       type="xygrid"
       id="grid4132" />
    <sodipodi:guide
       position="2,20.000017"
       orientation="18,0"
       id="guide4138" />
    <sodipodi:guide
       position="2,2.0000174"
       orientation="0,18"
       id="guide4140" />
    <sodipodi:guide
       position="20,2.0000174"
       orientation="-18,0"
       id="guide4142" />
    <sodipodi:guide
       position="20,20.000017"
       orientation="0,-18"
       id="guide4144" />
    <sodipodi:guide
       position="3,19.000017"
       orientation="16,0"
       id="guide4146" />
    <sodipodi:guide
       position="3,3.0000174"
       orientation="0,16"
       id="guide4148" />
    <sodipodi:guide
       position="19,3.0000174"
       orientation="-16,0"
       id="guide4150" />
    <sodipodi:guide
       position="19,19.000017"
       orientation="0,-16"
       id="guide4152" />
  </sodipodi:namedview>
  <metadata
     id="metadata3874">
    <rdf:RDF>
      <cc:Work
         rdf:about="">
        <dc:format>image/svg+xml</dc:format>
        <dc:type
           rdf:resource="http://purl.org/dc/dcmitype/StillImage" />
        <dc:title />
      </cc:Work>
    </rdf:RDF>
  </metadata>
  <g
     inkscape:label="Capa 1"
     inkscape:groupmode="layer"
     id="layer1"
     transform="translate(-326,-534.3622)">
    <g
       id="akregator">
      <path
         id="circle4170"
         d="m 345,537.3622 h -2 a 13.999998,13.999998 0 0 1 -14,14 v 2 a 15.999998,15.999998 0 0 0 16,-16 z m -4,0 h -2 a 10,10 0 0 1 -10,10 v 2 a 12,12 0 0 0 12,-12 z m -4,0 h -2 a 5.9999871,6 0 0 1 -6,6 v 2 a 7.9999828,8 0 0 0 8,-8 z m -5,1.5 a 1.5,1.5 0 0 0 -1.5,-1.5 1.5,1.5 0 0 0 -1.5,1.5 1.5,1.5 0 0 0 1.5,1.5 1.5,1.5 0 0 0 1.5,-1.5 z"
         style="opacity:1;fill:#d3dae3;fill-opacity:1;stroke:none;stroke-width:10.6667;stroke-opacity:1"
         inkscape:connector-curvature="0"
         class="ColorScheme-Text" />
      <rect
         y="534.36218"
         x="326"
         height="22"
         width="22"
         id="rect4165"
         style="opacity:1;fill:none;fill-opacity:1;stroke:none" />
    </g>
  </g>
</svg>
