<?xml version="1.0" encoding="UTF-8" standalone="no"?>
<svg
   xmlns:dc="http://purl.org/dc/elements/1.1/"
   xmlns:cc="http://creativecommons.org/ns#"
   xmlns:rdf="http://www.w3.org/1999/02/22-rdf-syntax-ns#"
   xmlns:svg="http://www.w3.org/2000/svg"
   xmlns="http://www.w3.org/2000/svg"
   xmlns:sodipodi="http://sodipodi.sourceforge.net/DTD/sodipodi-0.dtd"
   xmlns:inkscape="http://www.inkscape.org/namespaces/inkscape"
   inkscape:version="1.0 (4035a4fb49, 2020-05-01)"
   sodipodi:docname="kaffeine.svg"
   id="svg4"
   version="1.1"
   width="16.5pt"
   viewBox="0 0 16.5 16.5"
   height="16.5pt">
  <metadata
     id="metadata10">
    <rdf:RDF>
      <cc:Work
         rdf:about="">
        <dc:format>image/svg+xml</dc:format>
        <dc:type
           rdf:resource="http://purl.org/dc/dcmitype/StillImage" />
        <dc:title />
      </cc:Work>
    </rdf:RDF>
  </metadata>
  <defs
     id="kaffeine" />
  <sodipodi:namedview
     inkscape:current-layer="svg4"
     inkscape:window-maximized="1"
     inkscape:window-y="0"
     inkscape:window-x="0"
     inkscape:cy="15.29173"
     inkscape:cx="28.53115"
     inkscape:zoom="16.592299"
     showgrid="false"
     id="namedview4"
     inkscape:window-height="1015"
     inkscape:window-width="1920"
     inkscape:pageshadow="2"
     inkscape:pageopacity="0"
     guidetolerance="10"
     gridtolerance="10"
     objecttolerance="10"
     borderopacity="1"
     bordercolor="#666666"
     pagecolor="#ffffff"
     inkscape:document-rotation="0" />
  <path
     style="fill:#d0d8e1;fill-opacity:1;stroke-width:0.0546877"
     id="kaffeine"
     d="m 13.408792,8.1359994 c 0,-2.899504 -2.350499,-5.249999 -5.2500015,-5.249999 -2.899504,0 -5.249999,2.350495 -5.249999,5.249999 0,2.8995026 2.350495,5.2500016 5.249999,5.2500016 h 5.2500015 v -0.875 h -2.351557 c 1.467804,-0.971779 2.350921,-2.6145363 2.351557,-4.3750016 z M 10.73038,11.675521 C 10.143989,12.101481 9.3230367,11.971606 8.8970721,11.384997 8.4711079,10.79859 8.6009897,9.9778596 9.1873857,9.5516796 9.7739954,9.1257148 10.594728,9.2555979 11.020705,9.8422101 11.446879,10.4286 11.316784,11.249348 10.73038,11.675521 Z m -0.06454,-5.73407 c 0.689362,-0.2240913 1.429788,0.1531671 1.653876,0.8425288 0.223876,0.6895755 -0.15338,1.429993 -0.842742,1.6538683 C 10.787641,8.6619399 10.047213,8.2846815 9.8231277,7.5953195 9.5992499,6.9059577 9.9765053,6.1653267 10.665868,5.941451 Z M 8.1587885,3.7610004 c 0.7248232,0 1.3124998,0.5876766 1.3124998,1.3124995 0,0.7248232 -0.5876766,1.3125 -1.3124998,1.3125 -0.7248229,0 -1.3124997,-0.5876768 -1.3124997,-1.3125 0,-0.7248229 0.5876768,-1.3124995 1.3124997,-1.3124995 z M 3.9978418,6.7839798 C 4.2219317,6.0946181 4.9623493,5.7173597 5.6517103,5.9412376 6.3410723,6.1653267 6.7183307,6.905744 6.4944533,7.5951058 6.2703633,8.2844669 5.5299463,8.6617252 4.8405851,8.4378481 4.1512233,8.2139728 3.7739652,7.4735553 3.9978418,6.7839798 Z M 7.4205089,11.384997 C 6.9945445,11.971606 6.1735923,12.101481 5.5871964,11.675521 5.000802,11.249348 4.8707051,10.4286 5.2968831,9.8422101 5.7228475,9.2558111 6.5438003,9.1257148 7.1301954,9.5518933 7.7165911,9.9778596 7.8464732,10.79859 7.4205089,11.384997 Z M 7.7212905,8.1359994 c 0,-0.2416073 0.1958927,-0.4375 0.4375,-0.4375 0.2416072,0 0.4375,0.1958927 0.4375,0.4375 0,0.2416072 -0.1958928,0.4375 -0.4375,0.4375 -0.2416073,0 -0.4375,-0.1958928 -0.4375,-0.4375 z m 0,0" />
</svg>
