<?xml version="1.0" encoding="UTF-8" standalone="no"?>
<svg
   xmlns:dc="http://purl.org/dc/elements/1.1/"
   xmlns:cc="http://creativecommons.org/ns#"
   xmlns:rdf="http://www.w3.org/1999/02/22-rdf-syntax-ns#"
   xmlns:svg="http://www.w3.org/2000/svg"
   xmlns="http://www.w3.org/2000/svg"
   xmlns:sodipodi="http://sodipodi.sourceforge.net/DTD/sodipodi-0.dtd"
   xmlns:inkscape="http://www.inkscape.org/namespaces/inkscape"
   version="1.1"
   id="Capa_1"
   x="0px"
   y="0px"
   viewBox="0 0 21.999935 22"
   xml:space="preserve"
   sodipodi:docname="nepomuk.svg"
   width="21.999935"
   height="22"
   inkscape:version="1.0 (4035a4fb49, 2020-05-01)"><metadata
   id="metadata53"><rdf:RDF><cc:Work
       rdf:about=""><dc:format>image/svg+xml</dc:format><dc:type
         rdf:resource="http://purl.org/dc/dcmitype/StillImage" /><dc:title /></cc:Work></rdf:RDF></metadata><defs
   id="defs51" /><sodipodi:namedview
   inkscape:document-rotation="0"
   pagecolor="#ffffff"
   bordercolor="#666666"
   borderopacity="1"
   objecttolerance="10"
   gridtolerance="10"
   guidetolerance="10"
   inkscape:pageopacity="0"
   inkscape:pageshadow="2"
   inkscape:window-width="1920"
   inkscape:window-height="1015"
   id="namedview49"
   showgrid="false"
   inkscape:zoom="10.961283"
   inkscape:cx="40.097824"
   inkscape:cy="18.251092"
   inkscape:window-x="0"
   inkscape:window-y="0"
   inkscape:window-maximized="1"
   inkscape:current-layer="Capa_1" />
<g
   id="g12"
   transform="matrix(0.04782575,0,0,0.04782575,9.683627e-5,-1.792855e-5)">
	
		<rect
   x="-13.097"
   y="331.81299"
   transform="matrix(0.7071,-0.7071,0.7071,0.7071,-225.3661,159.5435)"
   style="fill:#d3dae3;fill-opacity:1"
   width="186"
   height="40"
   id="rect2" />
	
		<rect
   x="88.186996"
   y="287.09698"
   transform="matrix(-0.7071,-0.7071,0.7071,-0.7071,-84.0805,725.3669)"
   style="fill:#d3dae3;fill-opacity:1"
   width="40"
   height="186"
   id="nepomuk" />
	<path
   style="fill:#00bcd4;fill-opacity:1"
   d="m 164.116,239.316 -32.594,32.594 28.284,28.284 28.284,28.284 32.593,-32.593 c -11.379,-6.692 -22.105,-14.92 -31.874,-24.688 -9.77,-9.771 -17.999,-20.5 -24.693,-31.881 z"
   id="path6" />
	<path
   style="fill:#d3dae3;fill-opacity:1"
   d="m 413.471,46.535 -28.284,28.284 c 46.344,46.344 46.344,121.75 0,168.094 -46.344,46.344 -121.75,46.344 -168.094,0 l -28.284,28.284 c 9.769,9.769 20.495,17.996 31.874,24.688 60.885,35.807 140.516,27.583 192.788,-24.688 62.042,-62.042 62.035,-162.628 0,-224.662 z"
   id="path8" />
	<path
   style="fill:#b3f6ff;fill-opacity:1;opacity:0.01"
   d="m 385.187,242.913 c 46.344,-46.344 46.344,-121.75 0,-168.094 L 217.094,242.913 c 46.344,46.343 121.75,46.343 168.093,0 z"
   id="path10" />
	<path
   style="fill:#d3dae3;fill-opacity:1"
   d="M 217.094,242.913 C 170.75,196.569 170.743,121.156 217.087,74.812 263.431,28.468 338.844,28.475 385.188,74.819 L 413.472,46.535 C 351.43,-15.507 250.845,-15.513 188.803,46.528 c -52.271,52.271 -60.494,131.899 -24.687,192.788 6.694,11.382 14.923,22.11 24.694,31.881 z"
   id="path12" />
	<path
   style="fill:#ffffff;opacity:0.01"
   d="m 217.087,74.812 c -46.344,46.344 -46.337,121.757 0.007,168.101 L 385.187,74.819 C 338.844,28.475 263.43,28.468 217.087,74.812 Z"
   id="path14" />
</g>
<g
   id="g18"
   transform="translate(0.00202478,-3.7487231e-4)">
</g>
<g
   id="g20"
   transform="translate(0.00202478,-3.7487231e-4)">
</g>
<g
   id="g22"
   transform="translate(0.00202478,-3.7487231e-4)">
</g>
<g
   id="g24"
   transform="translate(0.00202478,-3.7487231e-4)">
</g>
<g
   id="g26"
   transform="translate(0.00202478,-3.7487231e-4)">
</g>
<g
   id="g28"
   transform="translate(0.00202478,-3.7487231e-4)">
</g>
<g
   id="g30"
   transform="translate(0.00202478,-3.7487231e-4)">
</g>
<g
   id="g32"
   transform="translate(0.00202478,-3.7487231e-4)">
</g>
<g
   id="g34"
   transform="translate(0.00202478,-3.7487231e-4)">
</g>
<g
   id="g36"
   transform="translate(0.00202478,-3.7487231e-4)">
</g>
<g
   id="g38"
   transform="translate(0.00202478,-3.7487231e-4)">
</g>
<g
   id="g40"
   transform="translate(0.00202478,-3.7487231e-4)">
</g>
<g
   id="g42"
   transform="translate(0.00202478,-3.7487231e-4)">
</g>
<g
   id="g44"
   transform="translate(0.00202478,-3.7487231e-4)">
</g>
<g
   id="g46"
   transform="translate(0.00202478,-3.7487231e-4)">
</g>
</svg>
