<?xml version="1.0" encoding="UTF-8" standalone="no"?>
<svg
   xmlns:dc="http://purl.org/dc/elements/1.1/"
   xmlns:cc="http://creativecommons.org/ns#"
   xmlns:rdf="http://www.w3.org/1999/02/22-rdf-syntax-ns#"
   xmlns:svg="http://www.w3.org/2000/svg"
   xmlns="http://www.w3.org/2000/svg"
   xmlns:sodipodi="http://sodipodi.sourceforge.net/DTD/sodipodi-0.dtd"
   xmlns:inkscape="http://www.inkscape.org/namespaces/inkscape"
   id="SVGRoot"
   version="1.1"
   viewBox="0 0 32 32"
   height="32"
   width="32"
   inkscape:version="1.0 (4035a4fb49, 2020-05-01)"
   sodipodi:docname="window.svg">
  <defs
     id="defs858" />
  <sodipodi:namedview
     inkscape:lockguides="false"
     showguides="false"
     id="base"
     pagecolor="#ffffff"
     bordercolor="#666666"
     borderopacity="1.0"
     inkscape:pageopacity="0.0"
     inkscape:pageshadow="2"
     inkscape:zoom="4.9536984"
     inkscape:cx="97.627295"
     inkscape:cy="14.960369"
     inkscape:document-units="px"
     inkscape:current-layer="layer1"
     inkscape:document-rotation="0"
     showgrid="false"
     inkscape:window-width="1920"
     inkscape:window-height="1015"
     inkscape:window-x="0"
     inkscape:window-y="0"
     inkscape:window-maximized="1">
    <inkscape:grid
       id="grid1428"
       type="xygrid"
       originx="4.4953642"
       originy="4.787" />
  </sodipodi:namedview>
  <metadata
     id="metadata861">
    <rdf:RDF>
      <cc:Work
         rdf:about="">
        <dc:format>image/svg+xml</dc:format>
        <dc:type
           rdf:resource="http://purl.org/dc/dcmitype/StillImage" />
        <dc:title />
      </cc:Work>
    </rdf:RDF>
  </metadata>
  <g
     inkscape:label="Layer 1"
     inkscape:groupmode="layer"
     id="layer1"
     transform="translate(4.4953642,4.787)">
    <g
       id="22-22-window-close"
       transform="translate(27.504636,5.213)">
      <rect
         style="opacity:0.00100002"
         width="22"
         height="22"
         x="0"
         y="0"
         id="rect18" />
      <g
         style="fill:#ffffff"
         transform="matrix(1.7493122,0,0,1.7499488,-107.95048,-909.47286)"
         id="g24">
        <g
           style="fill:#ffffff"
           transform="translate(19,-242)"
           id="g22">
          <path
             style="fill:#00bcd4;fill-opacity:1;stroke-width:0.791667"
             d="m 46.14227,765.42852 h 0.678571 c 0.0068,-9e-5 0.01407,-2.6e-4 0.02125,0 0.173005,0.01 0.345986,0.0875 0.466525,0.21205 l 1.547987,1.54805 1.569194,-1.54805 c 0.180252,-0.15637 0.303105,-0.2073 0.466519,-0.21205 h 0.678574 v 0.67859 c 0,0.19436 -0.02327,0.37369 -0.169645,0.50891 l -1.547987,1.54805 1.526783,1.52679 c 0.127697,0.12761 0.190845,0.30771 0.190849,0.48765 v 0.6786 h -0.678579 c -0.180025,-1e-5 -0.360044,-0.0627 -0.487728,-0.19082 l -1.547988,-1.54806 -1.547986,1.54806 c -0.127684,0.12765 -0.307708,0.19082 -0.487726,0.19082 h -0.678585 v -0.6786 c -3e-6,-0.17994 0.06312,-0.36004 0.190845,-0.48765 l 1.547986,-1.52679 -1.547986,-1.54805 c -0.143006,-0.13208 -0.205721,-0.31843 -0.190845,-0.50891 z"
             id="path20"
             inkscape:connector-curvature="0" />
        </g>
      </g>
    </g>
    <g
       id="16-16-window-close"
       transform="translate(49.504636,27.213)">
      <rect
         style="opacity:0.00100002"
         width="16"
         height="16"
         x="0"
         y="-16"
         id="rect27" />
      <g
         style="fill:#ffffff"
         transform="matrix(1.2495087,0,0,1.2499635,-76.964626,-665.48065)"
         id="g33">
        <g
           style="fill:#ffffff"
           transform="translate(19,-242)"
           id="g31">
          <path
             style="fill:#00bcd4;fill-opacity:1;stroke-width:0.749995"
             d="m 46.439265,765.76 h 0.599994 c 0.0063,-10e-5 0.01243,-3.3e-4 0.0188,0 0.152972,0.009 0.305917,0.0769 0.412498,0.18747 l 1.368746,1.36873 1.387491,-1.36873 c 0.159369,-0.13827 0.267995,-0.18327 0.412494,-0.18747 h 0.599992 v 0.6 c 0,0.17187 -0.02067,0.33034 -0.149997,0.44999 l -1.368748,1.36878 1.349992,1.35 c 0.112915,0.1129 0.168748,0.27197 0.168753,0.4312 v 0.6 h -0.599998 c -0.159179,-10e-6 -0.318349,-0.0565 -0.431253,-0.1688 l -1.368735,-1.3687 -1.368746,1.3687 c -0.112894,0.11295 -0.272069,0.1688 -0.431241,0.1688 h -0.599999 v -0.6 c -3e-6,-0.15922 0.05585,-0.3183 0.168741,-0.4312 l 1.368747,-1.35 -1.368747,-1.36878 C 46.481608,766.69327 46.42616,766.5284 46.439308,766.36 Z"
             id="path29"
             inkscape:connector-curvature="0" />
        </g>
      </g>
    </g>
    <g
       id="window-close"
       transform="translate(-4.4953642,-4.787)">
      <rect
         width="32"
         height="32"
         x="0"
         y="0"
         style="opacity:0.00100002"
         id="rect36" />
      <g
         style="opacity:0.2"
         transform="matrix(1.7493122,0,0,1.7499488,-102.95048,-903.47286)"
         id="g46">
        <g
           transform="translate(19,-242)"
           id="g44" />
      </g>
      <g
         transform="matrix(1.7493122,0,0,1.7499488,-102.95048,-904.47286)"
         style="fill:#ffffff"
         id="g52">
        <g
           transform="translate(19,-242)"
           style="fill:#ffffff"
           id="g50">
          <path
             d="m 46.088271,765.3347 h 0.678571 c 0.0068,-1.2e-4 0.01407,-2.6e-4 0.02125,0 0.173004,0.0113 0.345985,0.0874 0.466522,0.21204 l 1.547989,1.54806 1.569194,-1.54806 c 0.18025,-0.15638 0.303098,-0.20729 0.466517,-0.21204 h 0.678574 v 0.67858 c 0,0.19434 -0.02329,0.37368 -0.169646,0.50892 l -1.547985,1.54804 1.526785,1.52679 c 0.127692,0.12761 0.190839,0.3077 0.190846,0.48765 v 0.6786 h -0.678572 c -0.180025,-10e-6 -0.360048,-0.0617 -0.487729,-0.19082 l -1.547987,-1.54805 -1.547988,1.54805 c -0.127682,0.12758 -0.307705,0.19082 -0.487729,0.19082 H 46.08831 v -0.6786 c 0,-0.17994 0.06316,-0.36004 0.190849,-0.48765 l 1.547988,-1.52679 -1.547988,-1.54804 c -0.143005,-0.13208 -0.20572,-0.3185 -0.190849,-0.50892 z"
             style="fill:#00bcd4;fill-opacity:1;stroke-width:0.791667"
             id="path48"
             inkscape:connector-curvature="0" />
        </g>
      </g>
    </g>
    <g
       id="window-pin"
       transform="translate(67.499636,13)">
      <path
         sodipodi:nodetypes="cccccccccccccccccccccccc"
         d="m 6.1999998,7.813 v 0 0 0 0 7 0 H 15.7 v 0 0 0 0 0 0 -7 0 z m 9.5000002,7 v -7 7 H 6.1999998 Z"
         style="fill:#0055d4;fill-opacity:1;stroke-width:0.701849"
         id="rect878" />
      <rect
         y="0"
         x="0"
         height="22"
         width="22"
         id="rect930"
         style="fill:#00ffff;fill-opacity:0" />
    </g>
    <g
       id="window-unpin"
       transform="translate(92.8,13)">
      <path
         sodipodi:nodetypes="cccccccccccccccccccccccc"
         d="m 6.1996358,7.813 v 0 0 0 0 7 0 h 9.5000002 v 0 0 0 0 0 0 -7 0 z m 9.5000002,7 v -7 7 H 6.1996358 Z"
         style="fill:#0055d4;fill-opacity:1;stroke-width:0.701854"
         id="rect878-6" />
      <rect
         y="0"
         x="0"
         height="22"
         width="22"
         id="rect930-7"
         style="fill:#00ffff;fill-opacity:0" />
    </g>
  </g>
</svg>
